<svg xmlns="http://www.w3.org/2000/svg" xml:space="preserve" viewBox="0 0 100 125"><path d="M36.5 63.1a18.5 18.5 0 0 1-18.9 3.3 17.2 17.2 0 0 1-11-13.9L6.5 50l.1-2.5c.8-6.3 4.9-11.5 11-13.9a17.9 17.9 0 0 1 18.9 3.3l25.6 22.4 2.6 2.3a16.6 16.6 0 0 0 16.8 2.9c5.4-2.1 9.1-6.7 9.8-12.4l.1-2.2-.1-2.2a15 15 0 0 0-9.7-12.3 16.7 16.7 0 0 0-16.9 2.9l-7.8 6.8 3.1 2.7 7.4-6.5c3.5-3 8.4-3.9 12.8-2.2a11 11 0 0 1 7.2 8.9l.1 1.8-.1 1.8a11 11 0 0 1-7.2 9 12.5 12.5 0 0 1-12.8-2.2L39.3 34l-.2-.1a22.7 22.7 0 0 0-22.9-4A20.7 20.7 0 0 0 2.7 47.1L2.5 50l.2 2.9v.1a21 21 0 0 0 13.6 17.2 22.6 22.6 0 0 0 23-4l8.4-7.4-3.1-2.7-8.1 7zm1.9 2.2a21.3 21.3 0 0 1-21.8 3.8A20 20 0 0 1 3.8 52.9v-.1L3.6 50l.2-2.8c.9-7.5 5.7-13.5 12.8-16.2a21.3 21.3 0 0 1 21.8 3.7l.2.1 28.1 24.6c2.5 2.2 5.6 3.3 8.9 3.3 1.6 0 3.3-.3 5-.9 4.4-1.7 7.3-5.4 7.9-9.9l.1-1.9-.1-2c-.6-4.5-3.5-8.2-7.9-9.9a14 14 0 0 0-14 2.4L60 46.4l-1.3-1.1 6.8-6a15.4 15.4 0 0 1 15.7-2.7A13.7 13.7 0 0 1 90.3 50l-.1 2.1c-.6 5.2-4 9.5-9 11.4a15.1 15.1 0 0 1-15.7-2.7l-28-24.6-.2-.2a19.6 19.6 0 0 0-20.1-3.5A18 18 0 0 0 5.5 47.3l-.1 2.6.1 2.7a18 18 0 0 0 11.7 14.8 19.8 19.8 0 0 0 20.1-3.5l7.2-6.3 1.3 1.1-7.4 6.6z"/><path d="M97.3 47c-.9-7.9-6-14.3-13.6-17.2-7.9-3-16.7-1.5-23 4l-8.4 7.4 3.1 2.7 8-7a18.5 18.5 0 0 1 18.9-3.3 16.9 16.9 0 0 1 11 13.9l.1 2.5-.1 2.5a17.2 17.2 0 0 1-11 13.9 18.6 18.6 0 0 1-18.9-3.3L35.3 38.4l-.2-.2c-4.6-3.9-11-4.9-16.7-2.7a15.2 15.2 0 0 0-9.8 12.3L8.5 50l.1 2.3a15 15 0 0 0 9.7 12.3 16.7 16.7 0 0 0 16.9-2.9l7.8-6.9-3-2.7-7.4 6.5c-3.5 3-8.4 3.9-12.8 2.2a11 11 0 0 1-7.2-8.9l-.1-1.9.1-1.7v-.1c.5-4.1 3.2-7.4 7.2-9 4.3-1.7 9.1-.9 12.6 2l25.8 22.6 2.6 2.3a22.4 22.4 0 0 0 23 4 21 21 0 0 0 13.6-17.2l.2-3-.3-2.9zm-1.1 5.8A19.7 19.7 0 0 1 83.4 69a21.3 21.3 0 0 1-21.8-3.8L33.2 40.4a13.6 13.6 0 0 0-13.8-2.3 12 12 0 0 0-7.9 10v.1l-.1 1.8.1 2c.6 4.5 3.5 8.2 7.9 9.9a14 14 0 0 0 14-2.4l6.6-5.8 1.3 1.1-6.8 6a15.4 15.4 0 0 1-15.7 2.7c-5-1.9-8.4-6.1-9-11.3L9.7 50l.1-2c.6-5.2 4-9.5 9-11.4 5.3-2 11.2-1.1 15.5 2.5L62.7 64a19.8 19.8 0 0 0 20.1 3.5 18 18 0 0 0 11.7-14.8l.1-2.6-.1-2.6a18 18 0 0 0-11.7-14.8 19.8 19.8 0 0 0-20.1 3.5l-7.2 6.3-1.3-1.1 7.4-6.5a21.3 21.3 0 0 1 21.8-3.8 19.7 19.7 0 0 1 12.8 16.2l.2 2.8-.2 2.7z"/></svg>
